<svg width="30" height="30" viewBox="0 0 30 30" fill="none" xmlns="http://www.w3.org/2000/svg">
<path d="M14.9414 4C8.89964 4 4.00001 8.91879 4.00001 14.9866C3.99754 17.2894 4.71883 19.5348 6.06195 21.4054C7.40506 23.276 9.30207 24.6772 11.4849 25.4109C12.032 25.5122 12.2317 25.1729 12.2317 24.8816C12.2317 24.6203 12.2221 23.9296 12.2167 23.0131C9.17321 23.6765 8.53032 21.5399 8.53032 21.5399C8.03379 20.2706 7.31567 19.9327 7.31567 19.9327C6.32125 19.2515 7.38954 19.2652 7.38954 19.2652C8.48792 19.3432 9.06515 20.3978 9.06515 20.3978C10.0418 22.0761 11.6271 21.5919 12.2509 21.3101C12.3494 20.6002 12.6325 20.116 12.9457 19.8411C10.5164 19.5634 7.9613 18.6209 7.9613 14.4121C7.9613 13.2125 8.38807 12.2317 9.08841 11.463C8.97487 11.1853 8.60008 10.0678 9.1951 8.55631C9.1951 8.55631 10.1143 8.26085 12.2044 9.68205C13.0972 9.43804 14.0186 9.31384 14.9442 9.31273C15.8698 9.31456 16.7911 9.43922 17.684 9.68341C19.7727 8.26222 20.6905 8.55767 20.6905 8.55767C21.2869 10.0705 20.9121 11.1867 20.7999 11.4644C21.5016 12.2331 21.9243 13.2138 21.9243 14.4134C21.9243 18.6333 19.3664 19.562 16.9289 19.8342C17.3215 20.1735 17.6717 20.8437 17.6717 21.8682C17.6717 23.3373 17.658 24.5218 17.658 24.8816C17.658 25.1757 17.855 25.5176 18.4103 25.4096C20.591 24.6741 22.4856 23.2723 23.8269 21.4022C25.1681 19.5321 25.8882 17.2879 25.8856 14.9866C25.8856 8.91879 20.986 4 14.9414 4Z" fill="#E2D2F7"/>
</svg>
