<svg width="125" height="125" viewBox="0 0 125 125" fill="none" xmlns="http://www.w3.org/2000/svg">
<rect x="0.377441" width="124.041" height="124.041" rx="10" fill="#25202D"/>
<g filter="url(#filter0_d_49_492)">
<path d="M29.7312 24.9728L35.677 91.6611L62.358 99.068L89.1127 91.6508L95.0647 24.9728H29.7312ZM82.1261 46.7837H50.8273L51.5749 55.1592H81.3818L79.1371 80.27L62.398 84.9093L62.3604 84.921L45.606 80.2703L44.4603 67.4279H52.6708L53.2531 73.9511L62.3621 76.4106L62.3695 76.4087L71.4918 73.9459L72.4414 63.3383H44.0947L41.8887 38.6047H82.8583L82.1261 46.7837Z" fill="#6563FF"/>
<path d="M82.1261 46.7837H50.8273L51.5749 55.1592H81.3818L79.1371 80.27L62.398 84.9093L62.3604 84.921L45.606 80.2703L44.4603 67.4279H52.6708L53.2531 73.9511L62.3621 76.4106L62.3695 76.4087L71.4918 73.9459L72.4414 63.3383H44.0947L41.8887 38.6047H82.8583L82.1261 46.7837Z" fill="#D8D8FF"/>
</g>
<defs>
<filter id="filter0_d_49_492" x="19.7312" y="21.9728" width="85.3335" height="94.0952" filterUnits="userSpaceOnUse" colorInterpolationFilters="sRGB">
<feFlood floodOpacity="0" result="BackgroundImageFix"/>
<feColorMatrix in="SourceAlpha" type="matrix" values="0 0 0 0 0 0 0 0 0 0 0 0 0 0 0 0 0 0 127 0" result="hardAlpha"/>
<feOffset dy="7"/>
<feGaussianBlur stdDeviation="5"/>
<feComposite in2="hardAlpha" operator="out"/>
<feColorMatrix type="matrix" values="0 0 0 0 0 0 0 0 0 0 0 0 0 0 0 0 0 0 0.25 0"/>
<feBlend mode="normal" in2="BackgroundImageFix" result="effect1_dropShadow_49_492"/>
<feBlend mode="normal" in="SourceGraphic" in2="effect1_dropShadow_49_492" result="shape"/>
</filter>
</defs>
</svg>
