<svg width="30" height="30" viewBox="0 0 30 30" fill="none" xmlns="http://www.w3.org/2000/svg">
<path d="M4 6.48934C4 5.76778 4.24134 5.1725 4.72399 4.70351C5.20664 4.2345 5.83411 4 6.60636 4C7.36483 4 7.97848 4.23088 8.44735 4.69269C8.93 5.16891 9.17134 5.78943 9.17134 6.55428C9.17134 7.24697 8.93691 7.82419 8.46804 8.286C7.98539 8.76222 7.35103 9.00033 6.56498 9.00033H6.5443C5.78583 9.00033 5.17218 8.76222 4.7033 8.286C4.23443 7.80978 4 7.21089 4 6.48934ZM4.26891 25.43V10.9702H8.86106V25.43H4.26891ZM11.4054 25.43H15.9975V17.3559C15.9975 16.8508 16.0527 16.4611 16.163 16.187C16.356 15.6963 16.6491 15.2814 17.0421 14.9423C17.4351 14.6032 17.9281 14.4336 18.5211 14.4336C20.0656 14.4336 20.8379 15.5231 20.8379 17.7022V25.43H25.43V17.1394C25.43 15.0036 24.9474 13.3837 23.9821 12.2798C23.0167 11.1758 21.7412 10.6238 20.1553 10.6238C18.3763 10.6238 16.9904 11.4247 15.9975 13.0266V13.0699H15.9768L15.9975 13.0266V10.9702H11.4054C11.4329 11.4319 11.4467 12.8678 11.4467 15.2778C11.4467 17.6878 11.4329 21.0718 11.4054 25.43Z" fill="#E2D2F7"/>
</svg>
