<svg width="36" height="30" viewBox="0 0 36 30" fill="none" xmlns="http://www.w3.org/2000/svg">
<path d="M31.3248 6.56746C30.3354 6.99668 29.2891 7.28042 28.2185 7.40985C29.348 6.73504 30.1945 5.67344 30.6009 4.42199C29.5394 5.05387 28.3774 5.49906 27.1655 5.73823C26.3554 4.85973 25.2766 4.27496 24.0984 4.07562C22.9201 3.87628 21.7091 4.07366 20.6551 4.63678C19.6011 5.19991 18.7638 6.09694 18.2746 7.18719C17.7854 8.27744 17.6718 9.49924 17.9518 10.661C15.8056 10.5524 13.7062 9.99357 11.79 9.02075C9.87386 8.04793 8.18378 6.68288 6.82957 5.01429C6.35459 5.84375 6.10501 6.78309 6.10564 7.73891C6.10396 8.62656 6.32179 9.50085 6.73975 10.2839C7.1577 11.067 7.76281 11.7346 8.5012 12.2273C7.64298 12.2039 6.8031 11.9736 6.05299 11.556V11.6218C6.05942 12.8655 6.49524 14.0688 7.28672 15.0282C8.07821 15.9876 9.17677 16.6441 10.3966 16.8868C9.92702 17.0297 9.43951 17.105 8.94872 17.1105C8.60899 17.1066 8.2701 17.0758 7.93522 17.0184C8.28258 18.0883 8.9548 19.0232 9.85834 19.6932C10.7619 20.3632 11.8518 20.7349 12.9764 20.7565C11.0773 22.2508 8.7327 23.0663 6.31624 23.0731C5.87627 23.0746 5.43664 23.0482 5 22.9941C7.4672 24.5871 10.3424 25.4328 13.2791 25.4292C15.3058 25.4502 17.3162 25.0672 19.1932 24.3026C21.0701 23.5379 22.7759 22.4069 24.2108 20.9757C25.6457 19.5444 26.7811 17.8416 27.5506 15.9666C28.32 14.0916 28.7082 12.0821 28.6923 10.0555C28.6923 9.83173 28.6923 9.59481 28.6923 9.35789C29.7252 8.58764 30.616 7.64339 31.3248 6.56746Z" fill="#E2D2F7"/>
</svg>
